<mxfile host="65bd71144e">
    <diagram id="S13El6n2Y5VagsYtDxJG" name="Page-1">
        <mxGraphModel dx="2015" dy="1019" grid="1" gridSize="10" guides="1" tooltips="1" connect="0" arrows="0" fold="1" page="0" pageScale="1" pageWidth="1600" pageHeight="900" math="0" shadow="0">
            <root>
                <mxCell id="0"/>
                <mxCell id="1" parent="0"/>
                <mxCell id="2" value="TOM CLANCY'S" style="ellipse;" parent="1" vertex="1">
                    <mxGeometry x="707" y="60" width="110" height="50" as="geometry"/>
                </mxCell>
                <mxCell id="109" style="edgeStyle=orthogonalEdgeStyle;html=1;exitX=0.5;exitY=1;exitDx=0;exitDy=0;entryX=0.5;entryY=0;entryDx=0;entryDy=0;" parent="1" source="3" target="54" edge="1">
                    <mxGeometry relative="1" as="geometry"/>
                </mxCell>
                <mxCell id="3" value="start" style="rounded=1;" parent="1" vertex="1">
                    <mxGeometry x="280" y="160" width="80" height="30" as="geometry"/>
                </mxCell>
                <mxCell id="4" value="" style="edgeStyle=elbowEdgeStyle;elbow=vertical;" parent="1" source="2" target="3" edge="1">
                    <mxGeometry relative="1" as="geometry"/>
                </mxCell>
                <mxCell id="110" style="edgeStyle=orthogonalEdgeStyle;html=1;exitX=0.5;exitY=1;exitDx=0;exitDy=0;entryX=0.5;entryY=0;entryDx=0;entryDy=0;" parent="1" source="5" target="84" edge="1">
                    <mxGeometry relative="1" as="geometry">
                        <Array as="points">
                            <mxPoint x="430" y="300"/>
                            <mxPoint x="330" y="300"/>
                        </Array>
                    </mxGeometry>
                </mxCell>
                <mxCell id="5" value="login" style="rounded=1;" parent="1" vertex="1">
                    <mxGeometry x="390" y="160" width="80" height="30" as="geometry"/>
                </mxCell>
                <mxCell id="6" value="" style="edgeStyle=elbowEdgeStyle;elbow=vertical;" parent="1" source="2" target="5" edge="1">
                    <mxGeometry relative="1" as="geometry"/>
                </mxCell>
                <mxCell id="7" value="scss" style="rounded=1;" parent="1" vertex="1">
                    <mxGeometry x="500" y="160" width="80" height="30" as="geometry"/>
                </mxCell>
                <mxCell id="8" value="" style="edgeStyle=elbowEdgeStyle;elbow=vertical;" parent="1" source="2" target="7" edge="1">
                    <mxGeometry relative="1" as="geometry"/>
                </mxCell>
                <mxCell id="9" value="structure" style="rounded=1;" parent="1" vertex="1">
                    <mxGeometry x="610" y="160" width="80" height="30" as="geometry"/>
                </mxCell>
                <mxCell id="10" value="" style="edgeStyle=elbowEdgeStyle;elbow=vertical;" parent="1" source="2" target="9" edge="1">
                    <mxGeometry relative="1" as="geometry"/>
                </mxCell>
                <mxCell id="11" value="drawio" style="rounded=1;" parent="1" vertex="1">
                    <mxGeometry x="721" y="160" width="82" height="30" as="geometry"/>
                </mxCell>
                <mxCell id="12" value="" style="edgeStyle=elbowEdgeStyle;elbow=vertical;" parent="1" source="2" target="11" edge="1">
                    <mxGeometry relative="1" as="geometry"/>
                </mxCell>
                <mxCell id="129" style="edgeStyle=elbowEdgeStyle;elbow=vertical;html=1;exitX=0.5;exitY=1;exitDx=0;exitDy=0;entryX=0.5;entryY=0;entryDx=0;entryDy=0;" parent="1" source="13" target="111" edge="1">
                    <mxGeometry relative="1" as="geometry"/>
                </mxCell>
                <mxCell id="13" value="wildlands" style="rounded=1;" parent="1" vertex="1">
                    <mxGeometry x="830" y="160" width="80" height="30" as="geometry"/>
                </mxCell>
                <mxCell id="14" value="" style="edgeStyle=elbowEdgeStyle;elbow=vertical;" parent="1" source="2" target="13" edge="1">
                    <mxGeometry relative="1" as="geometry"/>
                </mxCell>
                <mxCell id="15" value="breakpoint" style="rounded=1;" parent="1" vertex="1">
                    <mxGeometry x="940" y="160" width="80" height="30" as="geometry"/>
                </mxCell>
                <mxCell id="16" value="" style="edgeStyle=elbowEdgeStyle;elbow=vertical;" parent="1" source="2" target="15" edge="1">
                    <mxGeometry relative="1" as="geometry"/>
                </mxCell>
                <mxCell id="17" value="thedivision" style="rounded=1;" parent="1" vertex="1">
                    <mxGeometry x="1050" y="160" width="80" height="30" as="geometry"/>
                </mxCell>
                <mxCell id="18" value="" style="edgeStyle=elbowEdgeStyle;elbow=vertical;" parent="1" source="2" target="17" edge="1">
                    <mxGeometry relative="1" as="geometry"/>
                </mxCell>
                <mxCell id="19" value="rainbow" style="rounded=1;" parent="1" vertex="1">
                    <mxGeometry x="1160" y="160" width="80" height="30" as="geometry"/>
                </mxCell>
                <mxCell id="20" value="" style="edgeStyle=elbowEdgeStyle;elbow=vertical;" parent="1" source="2" target="19" edge="1">
                    <mxGeometry relative="1" as="geometry"/>
                </mxCell>
                <mxCell id="54" value="start" style="rounded=1;" parent="1" vertex="1">
                    <mxGeometry x="50" y="270" width="80" height="30" as="geometry"/>
                </mxCell>
                <mxCell id="56" value="login" style="rounded=1;" parent="1" vertex="1">
                    <mxGeometry x="1040" y="-420" width="80" height="30" as="geometry"/>
                </mxCell>
                <mxCell id="58" value="image" style="rounded=1;" parent="1" vertex="1">
                    <mxGeometry x="-130" y="350" width="80" height="30" as="geometry"/>
                </mxCell>
                <mxCell id="59" value="" style="edgeStyle=elbowEdgeStyle;elbow=vertical;" parent="1" source="54" target="58" edge="1">
                    <mxGeometry relative="1" as="geometry"/>
                </mxCell>
                <mxCell id="60" value="" style="edgeStyle=elbowEdgeStyle;html=1;elbow=vertical;" parent="1" source="63" target="81" edge="1">
                    <mxGeometry relative="1" as="geometry"/>
                </mxCell>
                <mxCell id="61" value="" style="edgeStyle=elbowEdgeStyle;html=1;elbow=vertical;" parent="1" source="63" target="82" edge="1">
                    <mxGeometry relative="1" as="geometry"/>
                </mxCell>
                <mxCell id="62" value="" style="edgeStyle=elbowEdgeStyle;html=1;elbow=vertical;" parent="1" source="63" target="83" edge="1">
                    <mxGeometry relative="1" as="geometry"/>
                </mxCell>
                <mxCell id="63" value="scss" style="rounded=1;" parent="1" vertex="1">
                    <mxGeometry x="-10" y="350" width="80" height="30" as="geometry"/>
                </mxCell>
                <mxCell id="64" value="" style="edgeStyle=elbowEdgeStyle;elbow=vertical;" parent="1" source="54" target="63" edge="1">
                    <mxGeometry relative="1" as="geometry"/>
                </mxCell>
                <mxCell id="65" value="HTML" style="rounded=1;" parent="1" vertex="1">
                    <mxGeometry x="110" y="350" width="80" height="30" as="geometry"/>
                </mxCell>
                <mxCell id="66" value="" style="edgeStyle=elbowEdgeStyle;elbow=vertical;" parent="1" source="54" target="65" edge="1">
                    <mxGeometry relative="1" as="geometry"/>
                </mxCell>
                <mxCell id="67" value="JAVASC" style="rounded=1;" parent="1" vertex="1">
                    <mxGeometry x="230" y="350" width="80" height="30" as="geometry"/>
                </mxCell>
                <mxCell id="68" value="" style="edgeStyle=elbowEdgeStyle;elbow=vertical;" parent="1" source="54" target="67" edge="1">
                    <mxGeometry relative="1" as="geometry"/>
                </mxCell>
                <mxCell id="69" value="image" style="rounded=1;" parent="1" vertex="1">
                    <mxGeometry x="740" y="-340" width="80" height="30" as="geometry"/>
                </mxCell>
                <mxCell id="70" value="" style="edgeStyle=elbowEdgeStyle;elbow=vertical;" parent="1" source="56" target="69" edge="1">
                    <mxGeometry relative="1" as="geometry"/>
                </mxCell>
                <mxCell id="71" value="scss" style="rounded=1;" parent="1" vertex="1">
                    <mxGeometry x="860" y="-340" width="80" height="30" as="geometry"/>
                </mxCell>
                <mxCell id="72" value="" style="edgeStyle=elbowEdgeStyle;elbow=vertical;" parent="1" source="56" target="71" edge="1">
                    <mxGeometry relative="1" as="geometry"/>
                </mxCell>
                <mxCell id="73" value="HTML&#10;login" style="rounded=1;" parent="1" vertex="1">
                    <mxGeometry x="980" y="-340" width="80" height="30" as="geometry"/>
                </mxCell>
                <mxCell id="74" value="" style="edgeStyle=elbowEdgeStyle;elbow=vertical;" parent="1" source="56" target="73" edge="1">
                    <mxGeometry relative="1" as="geometry"/>
                </mxCell>
                <mxCell id="75" value="HTMLÂ &#10;register" style="rounded=1;" parent="1" vertex="1">
                    <mxGeometry x="1100" y="-340" width="80" height="30" as="geometry"/>
                </mxCell>
                <mxCell id="76" value="" style="edgeStyle=elbowEdgeStyle;elbow=vertical;" parent="1" source="56" target="75" edge="1">
                    <mxGeometry relative="1" as="geometry"/>
                </mxCell>
                <mxCell id="77" value="JAVASC&#10;login" style="rounded=1;" parent="1" vertex="1">
                    <mxGeometry x="1220" y="-340" width="80" height="30" as="geometry"/>
                </mxCell>
                <mxCell id="78" value="" style="edgeStyle=elbowEdgeStyle;elbow=vertical;" parent="1" source="56" target="77" edge="1">
                    <mxGeometry relative="1" as="geometry"/>
                </mxCell>
                <mxCell id="79" value="JAVASC&#10;register" style="rounded=1;" parent="1" vertex="1">
                    <mxGeometry x="1340" y="-340" width="80" height="30" as="geometry"/>
                </mxCell>
                <mxCell id="80" value="" style="edgeStyle=elbowEdgeStyle;elbow=vertical;" parent="1" source="56" target="79" edge="1">
                    <mxGeometry relative="1" as="geometry"/>
                </mxCell>
                <mxCell id="81" value="SCSS" style="rounded=1;" parent="1" vertex="1">
                    <mxGeometry x="-102" y="430" width="80" height="30" as="geometry"/>
                </mxCell>
                <mxCell id="82" value="CSS.MAP" style="rounded=1;" parent="1" vertex="1">
                    <mxGeometry x="-10" y="430" width="80" height="30" as="geometry"/>
                </mxCell>
                <mxCell id="83" value="CSS" style="rounded=1;" parent="1" vertex="1">
                    <mxGeometry x="78" y="430" width="80" height="30" as="geometry"/>
                </mxCell>
                <mxCell id="84" value="login" style="ellipse" parent="1" vertex="1">
                    <mxGeometry x="290" y="580" width="80" height="30" as="geometry"/>
                </mxCell>
                <mxCell id="85" value="scss" style="rounded=1;" parent="1" vertex="1">
                    <mxGeometry x="-130" y="660" width="80" height="30" as="geometry"/>
                </mxCell>
                <mxCell id="86" value="" style="edgeStyle=elbowEdgeStyle;elbow=vertical;" parent="1" source="84" target="85" edge="1">
                    <mxGeometry relative="1" as="geometry"/>
                </mxCell>
                <mxCell id="87" value="loginÂ &#10;HTML" style="rounded=1;" parent="1" vertex="1">
                    <mxGeometry x="230" y="660" width="80" height="30" as="geometry"/>
                </mxCell>
                <mxCell id="88" value="" style="edgeStyle=elbowEdgeStyle;elbow=vertical;" parent="1" source="84" target="87" edge="1">
                    <mxGeometry relative="1" as="geometry"/>
                </mxCell>
                <mxCell id="89" value="registerÂ &#10;HTML" style="rounded=1;" parent="1" vertex="1">
                    <mxGeometry x="350" y="660" width="80" height="30" as="geometry"/>
                </mxCell>
                <mxCell id="90" value="" style="edgeStyle=elbowEdgeStyle;elbow=vertical;" parent="1" source="84" target="89" edge="1">
                    <mxGeometry relative="1" as="geometry"/>
                </mxCell>
                <mxCell id="91" value="loginÂ &#10;JAVASC" style="rounded=1;" parent="1" vertex="1">
                    <mxGeometry x="470" y="660" width="80" height="30" as="geometry"/>
                </mxCell>
                <mxCell id="92" value="" style="edgeStyle=elbowEdgeStyle;elbow=vertical;" parent="1" source="84" target="91" edge="1">
                    <mxGeometry relative="1" as="geometry"/>
                </mxCell>
                <mxCell id="93" value="registerÂ &#10;JAVASC" style="rounded=1;" parent="1" vertex="1">
                    <mxGeometry x="590" y="660" width="80" height="30" as="geometry"/>
                </mxCell>
                <mxCell id="94" value="" style="edgeStyle=elbowEdgeStyle;elbow=vertical;" parent="1" source="84" target="93" edge="1">
                    <mxGeometry relative="1" as="geometry"/>
                </mxCell>
                <mxCell id="95" value="image" style="rounded=1;" parent="1" vertex="1">
                    <mxGeometry x="710" y="660" width="80" height="30" as="geometry"/>
                </mxCell>
                <mxCell id="96" value="" style="edgeStyle=elbowEdgeStyle;elbow=vertical;" parent="1" source="84" target="95" edge="1">
                    <mxGeometry relative="1" as="geometry"/>
                </mxCell>
                <mxCell id="97" value="login&#10;SCSS" style="rounded=1;" parent="1" vertex="1">
                    <mxGeometry x="-430" y="740" width="80" height="30" as="geometry"/>
                </mxCell>
                <mxCell id="98" value="" style="edgeStyle=elbowEdgeStyle;elbow=vertical;" parent="1" source="85" target="97" edge="1">
                    <mxGeometry relative="1" as="geometry"/>
                </mxCell>
                <mxCell id="99" value="loginÂ &#10;CSS MAP" style="rounded=1;" parent="1" vertex="1">
                    <mxGeometry x="-310" y="740" width="80" height="30" as="geometry"/>
                </mxCell>
                <mxCell id="100" value="" style="edgeStyle=elbowEdgeStyle;elbow=vertical;" parent="1" source="85" target="99" edge="1">
                    <mxGeometry relative="1" as="geometry"/>
                </mxCell>
                <mxCell id="101" value="loginÂ &#10;CSS" style="rounded=1;" parent="1" vertex="1">
                    <mxGeometry x="-190" y="740" width="80" height="30" as="geometry"/>
                </mxCell>
                <mxCell id="102" value="" style="edgeStyle=elbowEdgeStyle;elbow=vertical;" parent="1" source="85" target="101" edge="1">
                    <mxGeometry relative="1" as="geometry"/>
                </mxCell>
                <mxCell id="103" value="registerÂ &#10;SCSS" style="rounded=1;" parent="1" vertex="1">
                    <mxGeometry x="-70" y="740" width="80" height="30" as="geometry"/>
                </mxCell>
                <mxCell id="104" value="" style="edgeStyle=elbowEdgeStyle;elbow=vertical;" parent="1" source="85" target="103" edge="1">
                    <mxGeometry relative="1" as="geometry"/>
                </mxCell>
                <mxCell id="105" value="registerÂ &#10;CSS MAP" style="rounded=1;" parent="1" vertex="1">
                    <mxGeometry x="50" y="740" width="80" height="30" as="geometry"/>
                </mxCell>
                <mxCell id="106" value="" style="edgeStyle=elbowEdgeStyle;elbow=vertical;" parent="1" source="85" target="105" edge="1">
                    <mxGeometry relative="1" as="geometry"/>
                </mxCell>
                <mxCell id="107" value="registerÂ &#10;CSS" style="rounded=1;" parent="1" vertex="1">
                    <mxGeometry x="170" y="740" width="80" height="30" as="geometry"/>
                </mxCell>
                <mxCell id="108" value="" style="edgeStyle=elbowEdgeStyle;elbow=vertical;" parent="1" source="85" target="107" edge="1">
                    <mxGeometry relative="1" as="geometry"/>
                </mxCell>
                <mxCell id="111" value="wildlands" style="ellipse" parent="1" vertex="1">
                    <mxGeometry x="830" y="810" width="80" height="30" as="geometry"/>
                </mxCell>
                <mxCell id="112" value="html" style="rounded=1;" parent="1" vertex="1">
                    <mxGeometry x="542" y="890" width="80" height="30" as="geometry"/>
                </mxCell>
                <mxCell id="113" value="" style="edgeStyle=elbowEdgeStyle;elbow=vertical;" parent="1" source="111" target="112" edge="1">
                    <mxGeometry relative="1" as="geometry"/>
                </mxCell>
                <mxCell id="114" value="scss" style="rounded=1;" parent="1" vertex="1">
                    <mxGeometry x="782" y="890" width="80" height="30" as="geometry"/>
                </mxCell>
                <mxCell id="115" value="" style="edgeStyle=elbowEdgeStyle;elbow=vertical;" parent="1" source="111" target="114" edge="1">
                    <mxGeometry relative="1" as="geometry"/>
                </mxCell>
                <mxCell id="116" value="javasc" style="rounded=1;" parent="1" vertex="1">
                    <mxGeometry x="998" y="890" width="80" height="30" as="geometry"/>
                </mxCell>
                <mxCell id="117" value="" style="edgeStyle=elbowEdgeStyle;elbow=vertical;" parent="1" source="111" target="116" edge="1">
                    <mxGeometry relative="1" as="geometry"/>
                </mxCell>
                <mxCell id="118" value="image" style="rounded=1;" parent="1" vertex="1">
                    <mxGeometry x="1118" y="890" width="80" height="30" as="geometry"/>
                </mxCell>
                <mxCell id="119" value="" style="edgeStyle=elbowEdgeStyle;elbow=vertical;" parent="1" source="111" target="118" edge="1">
                    <mxGeometry relative="1" as="geometry"/>
                </mxCell>
                <mxCell id="120" value="home&#10;HTML" style="rounded=1;" parent="1" vertex="1">
                    <mxGeometry x="542" y="970" width="80" height="30" as="geometry"/>
                </mxCell>
                <mxCell id="121" value="" style="edgeStyle=elbowEdgeStyle;elbow=vertical;" parent="1" source="112" target="120" edge="1">
                    <mxGeometry relative="1" as="geometry"/>
                </mxCell>
                <mxCell id="122" value="home&#10;SCSS" style="rounded=1;" parent="1" vertex="1">
                    <mxGeometry x="662" y="970" width="80" height="30" as="geometry"/>
                </mxCell>
                <mxCell id="123" value="" style="edgeStyle=elbowEdgeStyle;elbow=vertical;" parent="1" source="114" target="122" edge="1">
                    <mxGeometry relative="1" as="geometry"/>
                </mxCell>
                <mxCell id="124" value="home&#10;CSS MAP" style="rounded=1;" parent="1" vertex="1">
                    <mxGeometry x="782" y="970" width="80" height="30" as="geometry"/>
                </mxCell>
                <mxCell id="125" value="" style="edgeStyle=elbowEdgeStyle;elbow=vertical;" parent="1" source="114" target="124" edge="1">
                    <mxGeometry relative="1" as="geometry"/>
                </mxCell>
                <mxCell id="126" value="homeÂ &#10;CSS" style="rounded=1;" parent="1" vertex="1">
                    <mxGeometry x="902" y="970" width="80" height="30" as="geometry"/>
                </mxCell>
                <mxCell id="127" value="" style="edgeStyle=elbowEdgeStyle;elbow=vertical;" parent="1" source="114" target="126" edge="1">
                    <mxGeometry relative="1" as="geometry"/>
                </mxCell>
                <mxCell id="132" value="&lt;span style=&quot;font-size: 18px;&quot;&gt;function myFunction() {&lt;br&gt;var x =&amp;nbsp;&lt;br&gt;document.getElementById(&quot;myDIV&quot;);&lt;br&gt;if(x.style.display === &quot;none&quot;) {&lt;br&gt;x.style.display = &quot;block&quot;;&lt;br&gt;} else {&lt;br&gt;x.style.display = &quot;none&quot;;&lt;br&gt;&amp;nbsp; &amp;nbsp;}&lt;br&gt;}&lt;br&gt;&lt;br&gt;&lt;/span&gt;" style="shape=note;whiteSpace=wrap;html=1;backgroundOutline=1;fontColor=#000000;darkOpacity=0.05;fillColor=#FFF9B2;strokeColor=none;fillStyle=solid;direction=west;gradientDirection=north;gradientColor=#FFF2A1;shadow=1;size=20;pointerEvents=1;fontSize=19;" parent="1" vertex="1">
                    <mxGeometry x="-1310" y="-490" width="330" height="290" as="geometry"/>
                </mxCell>
                <mxCell id="133" value="toggle hide/show" style="text;strokeColor=#6F0000;align=center;fillColor=#a20025;html=1;verticalAlign=middle;whiteSpace=wrap;rounded=0;fontSize=20;fontColor=#ffffff;" parent="1" vertex="1">
                    <mxGeometry x="-1220" y="-580" width="150" height="110" as="geometry"/>
                </mxCell>
                <mxCell id="134" value="&lt;div style=&quot;font-size: 18px;&quot; id=&quot;myDIV&quot; class=&quot;mystyle&quot;&gt;&lt;br&gt;&lt;br&gt;&lt;font style=&quot;font-size: 18px;&quot;&gt;function myFunction() {&lt;br&gt;&amp;nbsp; const element =&amp;nbsp;&lt;br&gt;document.getElementById(&quot;myDIV&quot;);&lt;/font&gt;&lt;/div&gt;&lt;div style=&quot;font-size: 18px;&quot; id=&quot;myDIV&quot; class=&quot;mystyle&quot;&gt;&lt;font style=&quot;font-size: 18px;&quot;&gt;element.classList.remove(&quot;mystyle&quot;);&lt;/font&gt;&lt;/div&gt;&lt;div style=&quot;font-size: 18px;&quot; id=&quot;myDIV&quot; class=&quot;mystyle&quot;&gt;&lt;font style=&quot;font-size: 18px;&quot;&gt;element.classList.add(&quot;newone&quot;);&lt;/font&gt;&lt;/div&gt;&lt;div style=&quot;font-size: 18px;&quot; id=&quot;myDIV&quot; class=&quot;mystyle&quot;&gt;&lt;font style=&quot;font-size: 18px;&quot;&gt;}&lt;/font&gt;&lt;br&gt;&lt;br&gt;&lt;/div&gt;" style="shape=note;whiteSpace=wrap;html=1;backgroundOutline=1;fontColor=#000000;darkOpacity=0.05;fillColor=#FFF9B2;strokeColor=none;fillStyle=solid;direction=west;gradientDirection=north;gradientColor=#FFF2A1;shadow=1;size=20;pointerEvents=1;" parent="1" vertex="1">
                    <mxGeometry x="-890" y="-490" width="460" height="280" as="geometry"/>
                </mxCell>
                <mxCell id="131" value="CHANGE CLASS" style="text;strokeColor=#6F0000;align=center;fillColor=#a20025;html=1;verticalAlign=middle;whiteSpace=wrap;rounded=0;fontSize=18;fontColor=#ffffff;" parent="1" vertex="1">
                    <mxGeometry x="-735" y="-570" width="150" height="120" as="geometry"/>
                </mxCell>
                <mxCell id="135" value="&amp;lt;navbar&amp;gt;&lt;br&gt;&amp;lt;a href=&quot;#top&quot;&amp;gt;&amp;lt;/a&amp;gt;&lt;br&gt;&amp;lt;a href=&quot;#middle&quot;&amp;gt;&amp;lt;/a&amp;gt;&lt;br&gt;&amp;lt;/navbar&amp;gt;&lt;br&gt;&amp;lt;div class=&quot;content-1&quot; id=&quot;top&quot;&amp;gt;&lt;br&gt;......&lt;br&gt;&amp;lt;/div&amp;gt;&lt;br&gt;......&lt;br&gt;&amp;lt;div class=&quot;content-10&quot; id=&quot;middle&quot;&amp;gt;&lt;br&gt;.....&lt;br&gt;&amp;lt;/div&amp;gt;" style="text;strokeColor=none;align=center;fillColor=none;html=1;verticalAlign=middle;whiteSpace=wrap;rounded=0;fontSize=19;" parent="1" vertex="1">
                    <mxGeometry x="-630" y="110" width="340" height="250" as="geometry"/>
                </mxCell>
                <mxCell id="141" value="" style="line;strokeWidth=4;direction=south;html=1;perimeter=backbonePerimeter;points=[];outlineConnect=0;" vertex="1" parent="1">
                    <mxGeometry x="120" y="1600" width="10" height="10" as="geometry"/>
                </mxCell>
                <mxCell id="143" value="" style="pointerEvents=1;verticalLabelPosition=bottom;shadow=0;dashed=0;align=center;html=1;verticalAlign=top;shape=mxgraph.electrical.miscellaneous.light_bulb;" vertex="1" parent="1">
                    <mxGeometry x="18" y="1530" width="60" height="50" as="geometry"/>
                </mxCell>
                <mxCell id="145" value="" style="line;strokeWidth=4;direction=south;html=1;perimeter=backbonePerimeter;points=[];outlineConnect=0;" vertex="1" parent="1">
                    <mxGeometry x="120" y="1580" width="10" height="160" as="geometry"/>
                </mxCell>
                <mxCell id="148" value="" style="group" vertex="1" connectable="0" parent="1">
                    <mxGeometry x="160" y="1560" width="30" height="30" as="geometry"/>
                </mxCell>
                <mxCell id="144" value="" style="shape=partialRectangle;whiteSpace=wrap;html=1;bottom=1;right=1;left=1;top=0;fillColor=none;routingCenterX=-0.5;verticalAlign=middle;" vertex="1" parent="148">
                    <mxGeometry width="30" height="10" as="geometry"/>
                </mxCell>
                <mxCell id="147" value="" style="line;strokeWidth=2;direction=south;html=1;" vertex="1" parent="148">
                    <mxGeometry x="10" y="10" width="10" height="20" as="geometry"/>
                </mxCell>
                <mxCell id="150" value="" style="verticalLabelPosition=bottom;html=1;verticalAlign=top;align=center;shape=mxgraph.floorplan.wallCorner;fillColor=strokeColor;" vertex="1" parent="1">
                    <mxGeometry x="280" y="1580" width="120" height="140" as="geometry"/>
                </mxCell>
                <mxCell id="151" value="" style="verticalLabelPosition=bottom;html=1;verticalAlign=top;align=center;shape=mxgraph.floorplan.wall;fillColor=strokeColor;" vertex="1" parent="1">
                    <mxGeometry x="280" y="1720" width="100" height="10" as="geometry"/>
                </mxCell>
                <mxCell id="152" value="" style="verticalLabelPosition=bottom;html=1;verticalAlign=top;align=center;shape=mxgraph.floorplan.wall;fillColor=strokeColor;direction=south;" vertex="1" parent="1">
                    <mxGeometry x="380" y="1720" width="10" height="300" as="geometry"/>
                </mxCell>
                <mxCell id="154" value="" style="group;allowArrows=0;cloneable=1;fontFamily=Helvetica;align=center;labelPosition=center;verticalLabelPosition=top;verticalAlign=bottom;direction=south;portConstraintRotation=1;snapToPoint=0;expand=1;rotation=90;fontColor=#CC0000;" vertex="1" connectable="0" parent="1">
                    <mxGeometry x="510" y="1680" width="30" height="30" as="geometry"/>
                </mxCell>
                <mxCell id="155" value="" style="shape=partialRectangle;whiteSpace=wrap;bottom=1;right=1;left=1;top=0;fillColor=none;routingCenterX=-0.5;allowArrows=0;cloneable=1;fontFamily=Helvetica;align=center;labelPosition=center;verticalLabelPosition=bottom;verticalAlign=bottom;rotation=90;" vertex="1" parent="154">
                    <mxGeometry x="10" y="10" width="30" height="10" as="geometry"/>
                </mxCell>
                <mxCell id="156" value="1F1.1" style="line;strokeWidth=2;direction=south;allowArrows=0;cloneable=1;fontFamily=Helvetica;labelBackgroundColor=none;align=center;labelPosition=center;verticalLabelPosition=top;verticalAlign=bottom;rotation=90;horizontal=1;labelBorderColor=none;spacingTop=10;spacing=11;" vertex="1" parent="154">
                    <mxGeometry x="5" y="5" width="10" height="20" as="geometry"/>
                </mxCell>
                <mxCell id="160" value="" style="group;allowArrows=0;cloneable=1;fontFamily=Helvetica;align=center;labelPosition=center;verticalLabelPosition=top;verticalAlign=bottom;direction=east;portConstraintRotation=1;snapToPoint=0;expand=1;rotation=90;fontColor=#CC0000;" vertex="1" connectable="0" parent="1">
                    <mxGeometry x="400" y="1740" width="30" height="30" as="geometry"/>
                </mxCell>
                <mxCell id="161" value="" style="shape=partialRectangle;whiteSpace=wrap;bottom=1;right=1;left=1;top=0;fillColor=none;routingCenterX=-0.5;allowArrows=0;cloneable=1;fontFamily=Helvetica;align=center;labelPosition=center;verticalLabelPosition=bottom;verticalAlign=bottom;rotation=90;" vertex="1" parent="160">
                    <mxGeometry x="10" y="10" width="30" height="10" as="geometry"/>
                </mxCell>
                <mxCell id="162" value="1F1.1" style="line;strokeWidth=2;direction=south;allowArrows=0;cloneable=1;fontFamily=Helvetica;labelBackgroundColor=none;align=center;labelPosition=center;verticalLabelPosition=top;verticalAlign=bottom;rotation=90;horizontal=1;labelBorderColor=none;spacingTop=10;spacing=11;" vertex="1" parent="160">
                    <mxGeometry x="5" y="5" width="10" height="20" as="geometry"/>
                </mxCell>
                <mxCell id="164" value="" style="group;direction=west;portConstraintRotation=1;cloneable=1;fixDash=1;imageAspect=0;movable=1;resizable=1;rotatable=1;deletable=1;editable=1;connectable=1;rotation=0;allowArrows=1;comic=0;" vertex="1" connectable="0" parent="1">
                    <mxGeometry x="510" y="1800" width="30" height="30" as="geometry"/>
                </mxCell>
                <mxCell id="167" value="" style="group;movable=0;resizable=0;rotatable=0;deletable=0;editable=0;connectable=0;" vertex="1" connectable="0" parent="164">
                    <mxGeometry width="30" height="30" as="geometry"/>
                </mxCell>
                <mxCell id="165" value="" style="shape=partialRectangle;whiteSpace=wrap;html=1;bottom=1;right=1;left=1;top=0;fillColor=none;routingCenterX=-0.5;" vertex="1" parent="167">
                    <mxGeometry width="30" height="10" as="geometry"/>
                </mxCell>
                <mxCell id="166" value="" style="line;strokeWidth=2;direction=south;html=1;" vertex="1" parent="167">
                    <mxGeometry x="10" y="10" width="10" height="20" as="geometry"/>
                </mxCell>
            </root>
        </mxGraphModel>
    </diagram>
</mxfile>